0
SECTION
2
HEADER
9
$ACADVER
1
AC1009
0
ENDSEC
0
SECTION
2
ENTITIES
0
POLYLINE
8
SUBSTRATE
66
1
39
0
10
0.000000
20
0.000000
30
0.000000
70
1
0
VERTEX
8
SUBSTRATE
39
0
10
-5.000000e-01
20
-7
30
0
70
0
42
0
0
VERTEX
8
SUBSTRATE
39
0
10
-5.000000e-01
20
-6
30
0
70
0
42
0
0
VERTEX
8
SUBSTRATE
39
0
10
-1
20
-6
30
0
70
0
42
0
0
VERTEX
8
SUBSTRATE
39
0
10
-1
20
-5
30
0
70
0
42
0
0
VERTEX
8
SUBSTRATE
39
0
10
-5.000000e-01
20
-5
30
0
70
0
42
0
0
VERTEX
8
SUBSTRATE
39
0
10
-5.000000e-01
20
-4
30
0
70
0
42
0
0
VERTEX
8
SUBSTRATE
39
0
10
-1
20
-4
30
0
70
0
42
0
0
VERTEX
8
SUBSTRATE
39
0
10
-1
20
-3
30
0
70
0
42
0
0
VERTEX
8
SUBSTRATE
39
0
10
-1.500000e+00
20
-3
30
0
70
0
42
0
0
VERTEX
8
SUBSTRATE
39
0
10
-1.500000e+00
20
-2
30
0
70
0
42
0
0
VERTEX
8
SUBSTRATE
39
0
10
-3
20
-2
30
0
70
0
42
0
0
VERTEX
8
SUBSTRATE
39
0
10
-3
20
-2.500000e+00
30
0
70
0
42
0
0
VERTEX
8
SUBSTRATE
39
0
10
-4.500000e+00
20
-2.500000e+00
30
0
70
0
42
0
0
VERTEX
8
SUBSTRATE
39
0
10
-4.500000e+00
20
-3
30
0
70
0
42
0
0
VERTEX
8
SUBSTRATE
39
0
10
-5.500000e+00
20
-3
30
0
70
0
42
0
0
VERTEX
8
SUBSTRATE
39
0
10
-5.500000e+00
20
-2
30
0
70
0
42
0
0
VERTEX
8
SUBSTRATE
39
0
10
-5
20
-2
30
0
70
0
42
0
0
VERTEX
8
SUBSTRATE
39
0
10
-5
20
-1
30
0
70
0
42
0
0
VERTEX
8
SUBSTRATE
39
0
10
-4.500000e+00
20
-1
30
0
70
0
42
0
0
VERTEX
8
SUBSTRATE
39
0
10
-4.500000e+00
20
-1.500000e+00
30
0
70
0
42
0
0
VERTEX
8
SUBSTRATE
39
0
10
-3
20
-1.500000e+00
30
0
70
0
42
0
0
VERTEX
8
SUBSTRATE
39
0
10
-3
20
-1
30
0
70
0
42
0
0
VERTEX
8
SUBSTRATE
39
0
10
-2.500000e+00
20
-1
30
0
70
0
42
0
0
VERTEX
8
SUBSTRATE
39
0
10
-2.500000e+00
20
5.000000e-01
30
0
70
0
42
0
0
VERTEX
8
SUBSTRATE
39
0
10
-1.500000e+00
20
5.000000e-01
30
0
70
0
42
0
0
VERTEX
8
SUBSTRATE
39
0
10
-1.500000e+00
20
1
30
0
70
0
42
0
0
VERTEX
8
SUBSTRATE
39
0
10
-2.500000e+00
20
1
30
0
70
0
42
0
0
VERTEX
8
SUBSTRATE
39
0
10
-2.500000e+00
20
1.500000e+00
30
0
70
0
42
0
0
VERTEX
8
SUBSTRATE
39
0
10
-3
20
1.500000e+00
30
0
70
0
42
0
0
VERTEX
8
SUBSTRATE
39
0
10
-3
20
3.500000e+00
30
0
70
0
42
0
0
VERTEX
8
SUBSTRATE
39
0
10
-3.500000e+00
20
3.500000e+00
30
0
70
0
42
0
0
VERTEX
8
SUBSTRATE
39
0
10
-3.500000e+00
20
5
30
0
70
0
42
0
0
VERTEX
8
SUBSTRATE
39
0
10
-4
20
5
30
0
70
0
42
0
0
VERTEX
8
SUBSTRATE
39
0
10
-4
20
6
30
0
70
0
42
0
0
VERTEX
8
SUBSTRATE
39
0
10
-2.500000e+00
20
6
30
0
70
0
42
0
0
VERTEX
8
SUBSTRATE
39
0
10
-2.500000e+00
20
6.500000e+00
30
0
70
0
42
0
0
VERTEX
8
SUBSTRATE
39
0
10
-1
20
6.500000e+00
30
0
70
0
42
0
0
VERTEX
8
SUBSTRATE
39
0
10
-1
20
7
30
0
70
0
42
0
0
VERTEX
8
SUBSTRATE
39
0
10
0
20
7
30
0
70
0
42
0
0
VERTEX
8
SUBSTRATE
39
0
10
0
20
7.500000e+00
30
0
70
0
42
0
0
VERTEX
8
SUBSTRATE
39
0
10
5.000000e-01
20
7.500000e+00
30
0
70
0
42
0
0
VERTEX
8
SUBSTRATE
39
0
10
5.000000e-01
20
6
30
0
70
0
42
0
0
VERTEX
8
SUBSTRATE
39
0
10
1
20
6
30
0
70
0
42
0
0
VERTEX
8
SUBSTRATE
39
0
10
1
20
4
30
0
70
0
42
0
0
VERTEX
8
SUBSTRATE
39
0
10
1.500000e+00
20
4
30
0
70
0
42
0
0
VERTEX
8
SUBSTRATE
39
0
10
1.500000e+00
20
2
30
0
70
0
42
0
0
VERTEX
8
SUBSTRATE
39
0
10
3
20
2
30
0
70
0
42
0
0
VERTEX
8
SUBSTRATE
39
0
10
3
20
2.500000e+00
30
0
70
0
42
0
0
VERTEX
8
SUBSTRATE
39
0
10
4
20
2.500000e+00
30
0
70
0
42
0
0
VERTEX
8
SUBSTRATE
39
0
10
4
20
3
30
0
70
0
42
0
0
VERTEX
8
SUBSTRATE
39
0
10
6
20
3
30
0
70
0
42
0
0
VERTEX
8
SUBSTRATE
39
0
10
6
20
2
30
0
70
0
42
0
0
VERTEX
8
SUBSTRATE
39
0
10
5
20
2
30
0
70
0
42
0
0
VERTEX
8
SUBSTRATE
39
0
10
5
20
1.500000e+00
30
0
70
0
42
0
0
VERTEX
8
SUBSTRATE
39
0
10
3.500000e+00
20
1.500000e+00
30
0
70
0
42
0
0
VERTEX
8
SUBSTRATE
39
0
10
3.500000e+00
20
1
30
0
70
0
42
0
0
VERTEX
8
SUBSTRATE
39
0
10
2.500000e+00
20
1
30
0
70
0
42
0
0
VERTEX
8
SUBSTRATE
39
0
10
2.500000e+00
20
5.000000e-01
30
0
70
0
42
0
0
VERTEX
8
SUBSTRATE
39
0
10
3
20
5.000000e-01
30
0
70
0
42
0
0
VERTEX
8
SUBSTRATE
39
0
10
3
20
-5.000000e-01
30
0
70
0
42
0
0
VERTEX
8
SUBSTRATE
39
0
10
2.500000e+00
20
-5.000000e-01
30
0
70
0
42
0
0
VERTEX
8
SUBSTRATE
39
0
10
2.500000e+00
20
-1
30
0
70
0
42
0
0
VERTEX
8
SUBSTRATE
39
0
10
3
20
-1
30
0
70
0
42
0
0
VERTEX
8
SUBSTRATE
39
0
10
3
20
-3
30
0
70
0
42
0
0
VERTEX
8
SUBSTRATE
39
0
10
3.500000e+00
20
-3
30
0
70
0
42
0
0
VERTEX
8
SUBSTRATE
39
0
10
3.500000e+00
20
-4
30
0
70
0
42
0
0
VERTEX
8
SUBSTRATE
39
0
10
4
20
-4
30
0
70
0
42
0
0
VERTEX
8
SUBSTRATE
39
0
10
4
20
-5.500000e+00
30
0
70
0
42
0
0
VERTEX
8
SUBSTRATE
39
0
10
3.500000e+00
20
-5.500000e+00
30
0
70
0
42
0
0
VERTEX
8
SUBSTRATE
39
0
10
3.500000e+00
20
-6.500000e+00
30
0
70
0
42
0
0
VERTEX
8
SUBSTRATE
39
0
10
1
20
-6.500000e+00
30
0
70
0
42
0
0
VERTEX
8
SUBSTRATE
39
0
10
1
20
-7
30
0
70
0
42
0
0
VERTEX
8
SUBSTRATE
39
0
10
-5.000000e-01
20
-7
30
0
70
0
42
0
0
SEQEND
8
SUBSTRATE
0
ENDSEC
0
EOF
