0
SECTION
2
HEADER
9
$ACADVER
1
AC1009
0
ENDSEC
0
SECTION
2
ENTITIES
0
POLYLINE
8
SUBSTRATE
66
1
39
0
10
0.000000
20
0.000000
30
0.000000
70
1
0
VERTEX
8
SUBSTRATE
39
0
10
1.250000e+00
20
-5.750000e+00
30
0
70
0
40
0
0
VERTEX
8
SUBSTRATE
39
0
10
1.250000e+00
20
-5.250000e+00
30
0
70
0
40
0
0
VERTEX
8
SUBSTRATE
39
0
10
-2.500000e-01
20
-5.250000e+00
30
0
70
0
40
0
0
VERTEX
8
SUBSTRATE
39
0
10
-2.500000e-01
20
-4.750000e+00
30
0
70
0
40
0
0
VERTEX
8
SUBSTRATE
39
0
10
-7.500000e-01
20
-4.750000e+00
30
0
70
0
40
0
0
VERTEX
8
SUBSTRATE
39
0
10
-7.500000e-01
20
-4.250000e+00
30
0
70
0
40
0
0
VERTEX
8
SUBSTRATE
39
0
10
-1.250000e+00
20
-4.250000e+00
30
0
70
0
40
0
0
VERTEX
8
SUBSTRATE
39
0
10
-1.250000e+00
20
-3.250000e+00
30
0
70
0
40
0
0
VERTEX
8
SUBSTRATE
39
0
10
-1.750000e+00
20
-3.250000e+00
30
0
70
0
40
0
0
VERTEX
8
SUBSTRATE
39
0
10
-1.750000e+00
20
-2.250000e+00
30
0
70
0
40
0
0
VERTEX
8
SUBSTRATE
39
0
10
-2.250000e+00
20
-2.250000e+00
30
0
70
0
40
0
0
VERTEX
8
SUBSTRATE
39
0
10
-2.250000e+00
20
-1.250000e+00
30
0
70
0
40
0
0
VERTEX
8
SUBSTRATE
39
0
10
-2.750000e+00
20
-1.250000e+00
30
0
70
0
40
0
0
VERTEX
8
SUBSTRATE
39
0
10
-2.750000e+00
20
2.500000e-01
30
0
70
0
40
0
0
VERTEX
8
SUBSTRATE
39
0
10
-3.250000e+00
20
2.500000e-01
30
0
70
0
40
0
0
VERTEX
8
SUBSTRATE
39
0
10
-3.250000e+00
20
2.250000e+00
30
0
70
0
40
0
0
VERTEX
8
SUBSTRATE
39
0
10
-2.750000e+00
20
2.250000e+00
30
0
70
0
40
0
0
VERTEX
8
SUBSTRATE
39
0
10
-2.750000e+00
20
2.750000e+00
30
0
70
0
40
0
0
VERTEX
8
SUBSTRATE
39
0
10
-3.250000e+00
20
2.750000e+00
30
0
70
0
40
0
0
VERTEX
8
SUBSTRATE
39
0
10
-3.250000e+00
20
4.750000e+00
30
0
70
0
40
0
0
VERTEX
8
SUBSTRATE
39
0
10
-2.750000e+00
20
4.750000e+00
30
0
70
0
40
0
0
VERTEX
8
SUBSTRATE
39
0
10
-2.750000e+00
20
5.750000e+00
30
0
70
0
40
0
0
VERTEX
8
SUBSTRATE
39
0
10
-1.750000e+00
20
5.750000e+00
30
0
70
0
40
0
0
VERTEX
8
SUBSTRATE
39
0
10
-1.750000e+00
20
6.250000e+00
30
0
70
0
40
0
0
VERTEX
8
SUBSTRATE
39
0
10
-7.500000e-01
20
6.250000e+00
30
0
70
0
40
0
0
VERTEX
8
SUBSTRATE
39
0
10
-7.500000e-01
20
6.750000e+00
30
0
70
0
40
0
0
VERTEX
8
SUBSTRATE
39
0
10
-2.500000e-01
20
6.750000e+00
30
0
70
0
40
0
0
VERTEX
8
SUBSTRATE
39
0
10
-2.500000e-01
20
5.750000e+00
30
0
70
0
40
0
0
VERTEX
8
SUBSTRATE
39
0
10
1.750000e+00
20
5.750000e+00
30
0
70
0
40
0
0
VERTEX
8
SUBSTRATE
39
0
10
1.750000e+00
20
5.250000e+00
30
0
70
0
40
0
0
VERTEX
8
SUBSTRATE
39
0
10
1.250000e+00
20
5.250000e+00
30
0
70
0
40
0
0
VERTEX
8
SUBSTRATE
39
0
10
1.250000e+00
20
4.750000e+00
30
0
70
0
40
0
0
VERTEX
8
SUBSTRATE
39
0
10
1.750000e+00
20
4.750000e+00
30
0
70
0
40
0
0
VERTEX
8
SUBSTRATE
39
0
10
1.750000e+00
20
3.750000e+00
30
0
70
0
40
0
0
VERTEX
8
SUBSTRATE
39
0
10
2.250000e+00
20
3.750000e+00
30
0
70
0
40
0
0
VERTEX
8
SUBSTRATE
39
0
10
2.250000e+00
20
3.250000e+00
30
0
70
0
40
0
0
VERTEX
8
SUBSTRATE
39
0
10
2.750000e+00
20
3.250000e+00
30
0
70
0
40
0
0
VERTEX
8
SUBSTRATE
39
0
10
2.750000e+00
20
2.750000e+00
30
0
70
0
40
0
0
VERTEX
8
SUBSTRATE
39
0
10
3.250000e+00
20
2.750000e+00
30
0
70
0
40
0
0
VERTEX
8
SUBSTRATE
39
0
10
3.250000e+00
20
7.500000e-01
30
0
70
0
40
0
0
VERTEX
8
SUBSTRATE
39
0
10
4.250000e+00
20
7.500000e-01
30
0
70
0
40
0
0
VERTEX
8
SUBSTRATE
39
0
10
4.250000e+00
20
2.500000e-01
30
0
70
0
40
0
0
VERTEX
8
SUBSTRATE
39
0
10
3.750000e+00
20
2.500000e-01
30
0
70
0
40
0
0
VERTEX
8
SUBSTRATE
39
0
10
3.750000e+00
20
-2.250000e+00
30
0
70
0
40
0
0
VERTEX
8
SUBSTRATE
39
0
10
4.750000e+00
20
-2.250000e+00
30
0
70
0
40
0
0
VERTEX
8
SUBSTRATE
39
0
10
4.750000e+00
20
-2.750000e+00
30
0
70
0
40
0
0
VERTEX
8
SUBSTRATE
39
0
10
3.750000e+00
20
-2.750000e+00
30
0
70
0
40
0
0
VERTEX
8
SUBSTRATE
39
0
10
3.750000e+00
20
-3.750000e+00
30
0
70
0
40
0
0
VERTEX
8
SUBSTRATE
39
0
10
3.250000e+00
20
-3.750000e+00
30
0
70
0
40
0
0
VERTEX
8
SUBSTRATE
39
0
10
3.250000e+00
20
-4.750000e+00
30
0
70
0
40
0
0
VERTEX
8
SUBSTRATE
39
0
10
2.750000e+00
20
-4.750000e+00
30
0
70
0
40
0
0
VERTEX
8
SUBSTRATE
39
0
10
2.750000e+00
20
-5.750000e+00
30
0
70
0
40
0
0
VERTEX
8
SUBSTRATE
39
0
10
1.250000e+00
20
-5.750000e+00
30
0
70
0
40
0
0
SEQEND
8
SUBSTRATE
0
ENDSEC
0
EOF
